<?xml version="1.0" standalone="no"?>
<!DOCTYPE svg PUBLIC "-//W3C//DTD SVG 20010904//EN"
 "http://www.w3.org/TR/2001/REC-SVG-20010904/DTD/svg10.dtd">
<svg version="1.0" xmlns="http://www.w3.org/2000/svg"
 width="784.000000pt" height="784.000000pt" viewBox="0 0 784.000000 784.000000"
 preserveAspectRatio="xMidYMid meet">
<metadata>
Created by potrace 1.14, written by Peter Selinger 2001-2017
</metadata>
<g transform="translate(0.000000,784.000000) scale(0.100000,-0.100000)"
fill="#000000" stroke="none">
<path d="M3905 7829 c-5 -6 -100 -62 -210 -126 -110 -63 -213 -123 -230 -133
-95 -55 -141 -83 -145 -90 -3 -4 -70 -45 -150 -90 -80 -45 -191 -109 -247
-141 -56 -32 -106 -59 -109 -59 -4 0 -15 -6 -23 -14 -9 -7 -42 -27 -73 -45
-132 -72 -175 -96 -210 -118 -21 -13 -40 -23 -43 -23 -3 0 -35 -18 -71 -40
-36 -22 -67 -40 -69 -40 -2 0 -38 -20 -79 -45 -42 -25 -79 -45 -81 -45 -3 0
-22 -11 -43 -23 -20 -13 -58 -36 -84 -50 -26 -15 -84 -47 -128 -72 -43 -25
-84 -45 -89 -45 -5 0 -11 -3 -13 -8 -1 -4 -91 -56 -198 -116 -107 -60 -207
-117 -222 -127 -15 -11 -29 -19 -31 -19 -2 0 -59 -31 -126 -70 -68 -38 -125
-70 -128 -70 -3 0 -17 -8 -31 -19 -15 -10 -54 -33 -87 -51 -33 -18 -75 -42
-93 -52 -17 -10 -49 -27 -70 -39 -20 -11 -88 -50 -149 -86 l-113 -65 0 -1962
c0 -1857 1 -1964 18 -1978 9 -8 24 -18 32 -21 8 -4 33 -18 55 -32 22 -14 51
-30 65 -37 14 -7 27 -15 30 -18 5 -5 19 -13 99 -58 25 -14 62 -36 81 -49 19
-12 40 -23 47 -23 7 0 13 -4 13 -9 0 -5 12 -14 28 -20 15 -6 63 -33 107 -59
44 -27 202 -119 350 -206 149 -87 292 -172 320 -190 27 -17 52 -31 55 -31 3 0
16 -8 30 -17 56 -35 180 -108 185 -108 3 0 18 -8 33 -19 54 -36 87 -55 95 -53
4 1 7 -2 7 -8 0 -5 4 -10 9 -10 5 0 108 -58 228 -129 120 -70 228 -133 239
-139 l22 -12 0 354 c0 319 -1 356 -16 368 -19 16 -142 89 -212 127 -25 13 -52
29 -60 36 -15 13 -96 59 -137 79 -13 6 -23 14 -23 19 0 4 -6 7 -14 7 -7 0 -19
7 -26 15 -7 8 -16 12 -21 9 -5 -3 -9 0 -9 5 0 6 -4 11 -10 11 -5 0 -58 29
-116 65 -59 36 -108 65 -109 65 -2 0 -82 47 -180 105 -97 58 -181 105 -186
105 -5 0 -9 4 -9 9 0 5 -8 11 -17 14 -18 6 -34 15 -202 116 -53 32 -114 68
-137 80 l-40 22 0 1589 c1 1046 4 1592 11 1599 9 8 208 125 540 317 61 35 115
67 120 71 6 4 28 18 50 30 22 11 54 29 72 40 126 73 240 139 248 143 5 3 42
24 80 46 252 150 556 324 565 324 5 0 10 5 10 10 0 6 5 10 10 10 6 0 29 11 51
26 40 25 69 42 159 92 25 14 61 36 80 49 19 12 40 23 46 23 7 0 14 4 16 8 2 5
28 22 58 38 83 45 104 58 111 67 3 5 8 7 10 6 2 -2 15 4 29 13 14 8 97 57 185
108 88 51 178 104 200 117 97 58 99 58 166 18 33 -21 59 -44 60 -53 0 -9 1
-291 2 -627 2 -598 2 -610 22 -620 11 -6 39 -23 62 -38 24 -15 45 -27 48 -27
2 0 35 -19 72 -42 38 -22 82 -49 98 -58 17 -10 127 -74 245 -144 l215 -126 1
-1762 c1 -1492 4 -1763 15 -1760 18 4 113 64 117 74 2 5 8 8 14 8 5 0 29 13
53 30 24 16 48 30 54 30 6 0 11 4 11 8 0 5 12 15 27 23 15 8 55 32 89 54 34
22 103 66 153 98 l91 58 0 1384 c0 762 2 1385 4 1385 2 0 55 -31 117 -68 63
-37 170 -101 239 -141 69 -39 132 -76 140 -81 92 -56 152 -90 160 -90 6 0 10
-4 10 -10 0 -5 6 -10 14 -10 7 0 19 -7 26 -15 7 -9 15 -13 18 -10 3 3 11 0 19
-6 11 -10 13 49 13 349 l0 360 -82 49 c-46 26 -87 50 -93 52 -5 2 -49 28 -98
58 -48 29 -90 53 -93 53 -3 0 -17 9 -32 19 -48 33 -493 291 -502 291 -6 0 -10
4 -10 8 0 5 -15 16 -32 25 -18 9 -54 29 -80 44 -102 61 -158 93 -163 93 -3 0
-11 5 -18 11 -7 6 -82 52 -167 102 l-156 92 1 615 c1 527 -1 618 -13 633 -8 9
-21 17 -29 17 -7 0 -13 4 -13 8 0 4 -19 18 -42 30 -24 12 -61 33 -83 47 -22
14 -55 33 -72 42 -18 9 -33 20 -33 25 0 4 -5 8 -11 8 -5 0 -111 61 -235 135
-124 74 -228 135 -232 135 -4 -1 -11 -6 -17 -11z"/>
<path d="M5034 6831 l0 -359 75 -44 c41 -24 98 -56 125 -72 28 -15 63 -37 78
-47 14 -10 29 -19 32 -19 4 0 43 -22 87 -50 44 -27 83 -50 85 -50 2 0 21 -11
42 -24 20 -13 89 -53 152 -90 63 -37 122 -71 130 -76 8 -5 71 -42 139 -82 68
-40 140 -83 160 -95 20 -13 42 -26 50 -29 13 -7 232 -136 261 -154 8 -5 36
-21 61 -36 l46 -26 0 -1618 c0 -890 -2 -1622 -6 -1627 -8 -12 -150 -93 -162
-93 -5 0 -9 -4 -9 -10 0 -5 -4 -10 -9 -10 -5 0 -58 -29 -118 -63 -59 -35 -211
-124 -338 -197 -126 -73 -250 -145 -275 -160 -25 -15 -65 -39 -90 -53 -119
-67 -272 -157 -285 -167 -8 -7 -15 -9 -15 -4 0 5 -4 4 -8 -2 -4 -6 -34 -25
-67 -43 -33 -18 -64 -36 -70 -41 -5 -4 -27 -17 -47 -29 -21 -12 -53 -30 -72
-40 -18 -11 -44 -25 -57 -33 -13 -7 -26 -15 -29 -18 -5 -5 -26 -17 -105 -59
-16 -9 -32 -19 -35 -22 -3 -3 -21 -14 -40 -24 -19 -10 -67 -37 -105 -60 -39
-23 -93 -55 -120 -69 -28 -15 -160 -92 -295 -171 l-245 -143 -27 19 c-14 11
-28 19 -31 19 -3 0 -55 29 -115 65 l-110 65 -1 2766 c0 1521 -1 2767 -3 2769
-2 1 -63 -35 -137 -81 -73 -46 -137 -84 -141 -84 -5 0 -10 -3 -12 -8 -4 -10
-137 -92 -149 -92 -5 0 -9 -4 -9 -10 0 -5 -11 -12 -25 -16 -14 -3 -25 -10 -25
-14 0 -5 -20 -19 -45 -31 -53 -26 -84 -54 -86 -74 -1 -8 -2 -18 -4 -22 -1 -5
-5 -26 -10 -48 -13 -56 -12 -55 -15 -57 -2 -3 -5 -15 -13 -53 -3 -11 -24 -94
-47 -185 -46 -182 -70 -277 -75 -300 -2 -8 -11 -44 -20 -80 -9 -36 -18 -72
-20 -80 -2 -8 -29 -116 -60 -240 -31 -124 -58 -232 -60 -240 -2 -8 -11 -44
-20 -80 -9 -36 -18 -72 -20 -80 -17 -81 -39 -150 -45 -139 -4 8 -15 39 -25 69
-10 30 -21 64 -26 75 -4 11 -28 79 -52 150 -25 72 -52 150 -61 175 -10 25 -18
50 -20 55 -2 6 -6 17 -9 25 -3 8 -15 44 -27 80 -12 36 -25 74 -29 85 -4 11
-13 36 -20 55 -60 183 -126 367 -134 377 -7 10 -15 9 -36 -5 -14 -10 -51 -29
-81 -42 -58 -26 -562 -279 -569 -286 -5 -5 -5 -2734 0 -2738 3 -2 239 -134
304 -170 11 -6 28 -18 39 -26 10 -8 21 -14 25 -14 3 1 35 -15 71 -35 176 -102
179 -103 179 -84 0 10 1 443 1 963 l1 944 21 -44 c11 -25 28 -65 38 -90 10
-25 31 -74 48 -110 16 -36 42 -94 57 -130 15 -36 35 -83 45 -105 10 -22 65
-147 121 -278 90 -208 105 -236 116 -221 7 10 13 26 13 36 0 10 5 18 10 18 6
0 10 5 10 11 0 9 82 207 131 314 9 22 39 90 64 150 26 61 57 133 69 160 13 28
47 106 76 175 30 69 57 129 61 134 4 5 8 -697 8 -1560 0 -863 1 -1664 1 -1780
l0 -212 328 -190 c180 -105 332 -196 339 -201 7 -6 15 -11 18 -11 4 0 55 -28
114 -63 106 -63 122 -67 151 -37 3 3 23 14 45 25 22 11 42 22 45 25 3 3 129
77 280 165 151 87 308 178 347 202 40 23 76 43 80 43 3 0 14 6 22 14 9 7 48
31 86 51 39 21 77 44 86 51 8 8 19 14 22 14 4 0 40 19 80 43 39 24 110 66 157
93 46 27 94 54 105 61 11 6 36 20 55 31 19 10 109 62 199 115 90 53 165 97
167 97 2 0 28 16 58 35 30 19 58 35 61 35 4 0 19 8 33 18 15 11 52 32 82 49
30 16 107 60 170 98 63 37 147 85 185 108 39 22 81 47 95 56 14 8 43 24 65 35
22 11 42 23 45 26 5 6 181 109 269 157 25 14 58 34 73 44 14 11 28 19 31 19 4
0 229 129 236 136 5 5 5 3954 0 3958 -2 2 -107 63 -234 136 -126 74 -231 138
-233 142 -2 4 -8 8 -14 8 -6 0 -45 21 -87 47 -42 25 -94 56 -116 68 -22 11
-59 33 -82 48 -24 15 -47 27 -53 27 -5 0 -10 4 -10 9 0 5 -17 16 -37 25 -21 9
-50 24 -65 34 -15 9 -99 59 -188 111 -88 52 -163 98 -166 103 -3 4 -10 6 -15
3 -5 -4 -9 -1 -9 4 0 6 -4 11 -9 11 -9 0 -337 192 -358 210 -7 5 -14 10 -17
10 -3 0 -105 59 -227 130 -122 72 -223 130 -223 130 -1 0 -2 -162 -2 -359z"/>
</g>
</svg>
